# xmcd CD database file
#
# Track frame offsets:
#	150
#	38123
#	66456
#	92952
#	134293
#	159944
#	189983
#	226547
#	263262
#
# Disc length: 3957 seconds
#
# Revision: 1
# Processed by: cddbd v1.5.2PL0 Copyright (c) Steve Scherf et al.
# Submitted via: CDex 1.51
#
DISCID=680f7309
DTITLE=DIMITRIS KALANTZIS - JAZZ TRIBUTE TO MANO'S
DYEAR=2011
DGENRE=Jazz
TTITLE0=DIMITRIS KALANTZIS - пеяа сто хоко потали
TTITLE1=DIMITRIS KALANTZIS /вояос (паяалухи выяис омола)
TTITLE2=DIMITRIS KALANTZIS - г лпакамта тоу одоипояоу
TTITLE3=DIMITRIS KALANTZIS - о йослос соу ма еилаи ецы 
TTITLE4=DIMITRIS KALANTZIS - то тяацоуди тоу дяолоу
TTITLE5=DIMITRIS KALANTZIS - лиа покг лацийг
TTITLE6=DIMITRIS KALANTZIS - хакасса пкатеиа
TTITLE7=DIMITRIS KALANTZIS - лиа памациа 
TTITLE8=DIMITRIS KALANTZIS /г лпакамта тым аисхгсеым йаи тым паяаисхгсеым
EXTD=YEAR: 2011
EXTT0=
EXTT1=
EXTT2=
EXTT3=
EXTT4=
EXTT5=
EXTT6=
EXTT7=
EXTT8=
PLAYORDER=
